<svg xmlns="http://www.w3.org/2000/svg" width="344.47" height="341.57"><path d="M48.66 45.75h295.81v295.81H48.66z"/><path fill="#fff" stroke="#000" stroke-miterlimit="10" stroke-width="9.52" d="M4.76 4.76h295.81v295.81H4.76z"/><path fill="#231f20" d="M36.49 102.24c-2.92-3.25-4.37-8.5-4.37-15.73v-7.07h14.22v9c0 3.59 1.15 5.38 3.45 5.38 1.29 0 2.19-.38 2.69-1.14s.76-2.03.76-3.83c0-2.36-.28-4.3-.84-5.85-.56-1.54-1.28-2.83-2.14-3.87-.87-1.04-2.43-2.65-4.67-4.84l-6.23-6.22c-4.82-4.71-7.23-9.93-7.23-15.65 0-6.17 1.42-10.87 4.25-14.09 2.83-3.22 6.97-4.84 12.41-4.84 6.51 0 11.19 1.72 14.05 5.17 2.86 3.45 4.29 8.85 4.29 16.19H52.41l-.08-4.96c0-.95-.27-1.71-.8-2.27s-1.28-.84-2.23-.84c-1.12 0-1.96.31-2.52.93-.56.62-.84 1.46-.84 2.52 0 2.36 1.35 4.8 4.04 7.32l8.41 8.08c1.96 1.91 3.59 3.72 4.88 5.43 1.29 1.71 2.33 3.73 3.11 6.06.78 2.33 1.18 5.09 1.18 8.29 0 7.12-1.3 12.52-3.91 16.19-2.61 3.67-6.91 5.51-12.91 5.51-6.56 0-11.3-1.63-14.22-4.88ZM70.39 106.45l6.98-72.26h24.48l6.9 72.26H95.04l-1.01-11.69h-8.75l-.84 11.69H70.39Zm15.98-23.22h6.56l-3.2-36.76h-.67l-2.69 36.76ZM113.12 106.45V34.19h14.47v59.98h14.89v12.28h-29.36ZM146.52 106.45V34.19h28.94v13.96h-14.22V62.2h13.63v13.63h-13.63V92.4h15.14v14.05h-29.86ZM184.12 102.24c-2.92-3.25-4.37-8.5-4.37-15.73v-7.07h14.22v9c0 3.59 1.15 5.38 3.45 5.38 1.29 0 2.19-.38 2.69-1.14.5-.76.76-2.03.76-3.83 0-2.36-.28-4.3-.84-5.85-.56-1.54-1.28-2.83-2.15-3.87-.87-1.04-2.43-2.65-4.67-4.84l-6.23-6.22c-4.82-4.71-7.23-9.93-7.23-15.65 0-6.17 1.42-10.87 4.25-14.09 2.83-3.22 6.97-4.84 12.41-4.84 6.51 0 11.19 1.72 14.05 5.17 2.86 3.45 4.29 8.85 4.29 16.19h-14.72l-.08-4.96c0-.95-.27-1.71-.8-2.27s-1.28-.84-2.23-.84c-1.12 0-1.96.31-2.52.93-.56.62-.84 1.46-.84 2.52 0 2.36 1.35 4.8 4.04 7.32l8.41 8.08c1.96 1.91 3.59 3.72 4.88 5.43 1.29 1.71 2.33 3.73 3.11 6.06.78 2.33 1.18 5.09 1.18 8.29 0 7.12-1.3 12.52-3.91 16.19-2.61 3.67-6.91 5.51-12.91 5.51-6.56 0-11.3-1.63-14.22-4.88ZM33.9 111.41h19.94c5.16 0 9.03 1.43 11.61 4.29s3.9 7.1 3.95 12.7l.17 33.82c.06 7.12-1.18 12.48-3.7 16.07-2.52 3.59-6.7 5.38-12.53 5.38H33.91v-72.26Zm17.08 59.48c2.64 0 3.95-1.29 3.95-3.87v-37.27c0-1.63-.13-2.85-.38-3.66s-.72-1.36-1.39-1.64c-.67-.28-1.71-.42-3.11-.42h-1.6v46.86h2.52ZM75.37 183.67v-72.26h28.94v13.96H90.09v14.05h13.63v13.63H90.09v16.57h15.14v14.05H75.37ZM112.97 179.46c-2.92-3.25-4.37-8.5-4.37-15.73v-7.07h14.22v9c0 3.59 1.15 5.38 3.45 5.38 1.29 0 2.19-.38 2.69-1.14.51-.76.76-2.03.76-3.83 0-2.36-.28-4.3-.84-5.85-.56-1.54-1.28-2.83-2.15-3.87-.87-1.04-2.43-2.65-4.67-4.84l-6.23-6.22c-4.82-4.71-7.23-9.93-7.23-15.65 0-6.17 1.42-10.87 4.25-14.09 2.83-3.22 6.97-4.84 12.41-4.84 6.51 0 11.19 1.72 14.05 5.17 2.86 3.45 4.29 8.85 4.29 16.19h-14.72l-.08-4.96c0-.95-.27-1.71-.8-2.27s-1.28-.84-2.23-.84c-1.12 0-1.96.31-2.52.93-.56.62-.84 1.46-.84 2.52 0 2.36 1.35 4.8 4.04 7.32l8.41 8.08c1.96 1.91 3.59 3.72 4.88 5.43 1.29 1.71 2.33 3.73 3.11 6.06.78 2.33 1.18 5.09 1.18 8.29 0 7.12-1.3 12.52-3.91 16.19-2.61 3.67-6.91 5.51-12.91 5.51-6.56 0-11.3-1.63-14.22-4.88ZM148.14 183.67v-72.26h13.96v72.26h-13.96ZM171.14 178.83c-2.55-3.67-3.83-9.24-3.83-16.7V131c0-6.67 1.49-11.72 4.46-15.14 2.97-3.42 7.4-5.13 13.29-5.13 4.77 0 8.47.95 11.1 2.86 2.64 1.91 4.46 4.68 5.47 8.33 1.01 3.65 1.51 8.33 1.51 14.05h-14.13v-6.48c0-1.74-.24-3.08-.72-4.04-.48-.95-1.33-1.43-2.57-1.43-2.75 0-4.12 1.8-4.12 5.38v35c0 2.19.28 3.84.84 4.96.56 1.12 1.54 1.68 2.94 1.68s2.38-.56 2.94-1.68c.56-1.12.84-2.78.84-4.96v-10.35h-3.87V141.6h17.67v42.06h-5.8l-2.44-6.06c-2.58 4.49-6.56 6.73-11.95 6.73s-9.1-1.84-11.65-5.51ZM208.7 183.67v-72.26h14.89l6.65 34.58v-34.58h13.96v72.26h-14.13l-7.23-36.17v36.17h-14.13ZM34.83 259.27v-72.26H49.3v59.98h14.89v12.28H34.83ZM66.3 259.27l6.98-72.26h24.48l6.9 72.26H90.95l-1.01-11.69h-8.75l-.84 11.69H66.3Zm15.98-23.22h6.56l-3.2-36.76h-.67l-2.69 36.76ZM109.03 187.01h19.6c5.27 0 9.1 1.29 11.48 3.87 2.38 2.58 3.58 6.79 3.58 12.62v3.2c0 6.9-2.47 11.02-7.4 12.37 3.03.79 5.16 2.61 6.39 5.47 1.23 2.86 1.85 6.65 1.85 11.36 0 7.68-1.15 13.5-3.45 17.46-2.3 3.95-6.45 5.93-12.45 5.93h-19.6v-72.26Zm17.08 27.17c1.23 0 2.07-.46 2.52-1.39.45-.93.67-2.23.67-3.91v-7.23c0-2.36-1.04-3.53-3.11-3.53h-3.03v16.07h2.94Zm4.12 27v-9c0-2.19-.32-3.84-.97-4.96-.65-1.12-1.78-1.68-3.41-1.68h-2.69v20.95l1.43.08c3.76 0 5.64-1.79 5.64-5.38ZM152.56 255.09c-2.92-3.26-4.38-8.51-4.38-15.76v-7.08h14.25v9.02c0 3.6 1.15 5.4 3.46 5.4 1.29 0 2.19-.38 2.7-1.14s.76-2.04.76-3.84c0-2.36-.28-4.31-.84-5.86-.56-1.54-1.28-2.84-2.15-3.88-.87-1.04-2.43-2.66-4.68-4.85l-6.24-6.24c-4.83-4.72-7.25-9.95-7.25-15.68 0-6.18 1.42-10.89 4.26-14.12 2.84-3.23 6.98-4.85 12.43-4.85 6.52 0 11.21 1.73 14.08 5.18 2.87 3.46 4.3 8.87 4.3 16.23h-14.75l-.08-4.97c0-.95-.27-1.71-.8-2.28-.53-.56-1.28-.84-2.23-.84-1.12 0-1.97.31-2.53.93-.56.62-.84 1.46-.84 2.53 0 2.36 1.35 4.81 4.05 7.33l8.43 8.09c1.97 1.91 3.6 3.72 4.89 5.44 1.29 1.71 2.33 3.74 3.12 6.07s1.18 5.1 1.18 8.3c0 7.14-1.31 12.55-3.92 16.23-2.61 3.68-6.93 5.52-12.94 5.52-6.58 0-11.33-1.63-14.25-4.89Z"/><path fill="#fff" d="M328.12 324.46c-.13-.11-.29-.22-.42-.33-.29-.22-.46-.46-.2-.77.13-.15 1.67-1.76 1.67-3.71 0-1.78-1.12-2.94-2.41-2.94-1.51 0-2.41 1.32-3.47 3.84-1.05 2.41-2.04 3.86-4.54 3.86-1.49 0-3.91-1.18-3.91-4.67 0-2.15 1.12-3.75 1.12-3.75.07-.13.33-.39.75-.13.13.09.29.18.42.26.31.2.39.42.2.77-.09.15-1.01 1.54-1.01 2.87 0 2.33 1.49 3.03 2.41 3.03 1.47 0 2.33-1.12 3.09-2.96 1.21-2.96 2.33-4.87 4.87-4.87 2.28 0 3.95 2.17 3.95 4.74s-1.51 4.34-1.78 4.63c-.15.18-.33.4-.75.13ZM329.85 310.29l-14.77-6.67c-.13-.07-.24-.17-.24-.37v-.22c0-.2.11-.31.24-.37l14.77-6.63c.29-.13.57.04.57.37v.88c0 .2-.13.33-.24.37l-3.62 1.62v7.79l3.62 1.6c.11.04.24.18.24.37v.88c0 .33-.29.5-.57.37Zm-4.65-10.42c-2.39 1.08-4.8 2.13-7.2 3.2v.17l7.2 3.2v-6.58ZM315.48 290.03c-.22 0-.42-.18-.42-.42v-.86c0-.22.2-.42.42-.42h13.47v-6.32c0-.24.2-.42.42-.42h.64c.22 0 .42.18.42.42v7.59c0 .24-.2.42-.42.42h-14.53ZM315.48 275.66c-.22 0-.42-.18-.42-.42v-8.65c0-.24.2-.42.42-.42h.64c.22 0 .42.18.42.42v7.37h5.35v-6.3c0-.22.2-.42.42-.42h.64c.24 0 .42.2.42.42v6.3h5.59v-7.37c0-.24.2-.42.42-.42h.64c.22 0 .42.18.42.42v8.65c0 .24-.2.42-.42.42h-14.53ZM328.12 260.06c-.13-.11-.29-.22-.42-.33-.29-.22-.46-.46-.2-.77.13-.15 1.67-1.75 1.67-3.71 0-1.78-1.12-2.94-2.41-2.94-1.51 0-2.41 1.32-3.47 3.84-1.05 2.41-2.04 3.86-4.54 3.86-1.49 0-3.91-1.18-3.91-4.67 0-2.15 1.12-3.75 1.12-3.75.07-.13.33-.4.75-.13.13.09.29.18.42.26.31.2.39.42.2.77-.09.15-1.01 1.54-1.01 2.88 0 2.33 1.49 3.03 2.41 3.03 1.47 0 2.33-1.12 3.09-2.96 1.21-2.96 2.33-4.87 4.87-4.87 2.28 0 3.95 2.17 3.95 4.74s-1.51 4.34-1.78 4.63c-.15.17-.33.4-.75.13ZM315.48 235.31c-.22 0-.42-.2-.42-.42v-.88c0-.22.2-.42.42-.42h14.53c.22 0 .42.2.42.42v.88c0 .22-.2.42-.42.42h-14.53ZM328.12 226.52c-.13-.11-.29-.22-.42-.33-.29-.22-.46-.46-.2-.77.13-.15 1.67-1.75 1.67-3.71 0-1.78-1.12-2.94-2.41-2.94-1.51 0-2.41 1.32-3.47 3.84-1.05 2.41-2.04 3.86-4.54 3.86-1.49 0-3.91-1.18-3.91-4.67 0-2.15 1.12-3.75 1.12-3.75.07-.13.33-.4.75-.13.13.09.29.18.42.26.31.2.39.42.2.77-.09.15-1.01 1.54-1.01 2.88 0 2.33 1.49 3.03 2.41 3.03 1.47 0 2.33-1.12 3.09-2.96 1.21-2.96 2.33-4.87 4.87-4.87 2.28 0 3.95 2.17 3.95 4.74s-1.51 4.34-1.78 4.63c-.15.17-.33.4-.75.13ZM329.85 203.87l-14.77-6.67c-.13-.07-.24-.17-.24-.37v-.22c0-.2.11-.31.24-.37l14.77-6.63c.29-.13.57.04.57.37v.88c0 .2-.13.33-.24.37l-3.62 1.62v7.79l3.62 1.6c.11.04.24.18.24.37v.88c0 .33-.29.5-.57.37Zm-4.65-10.42c-2.39 1.08-4.8 2.13-7.2 3.2v.17l7.2 3.2v-6.58ZM328.12 176.14c-.13-.11-.29-.22-.42-.33-.29-.22-.46-.46-.2-.77.13-.15 1.67-1.76 1.67-3.71 0-1.78-1.12-2.94-2.41-2.94-1.51 0-2.41 1.32-3.47 3.84-1.05 2.41-2.04 3.86-4.54 3.86-1.49 0-3.91-1.18-3.91-4.67 0-2.15 1.12-3.75 1.12-3.75.07-.13.33-.4.75-.13.13.09.29.18.42.26.31.2.39.42.2.77-.09.15-1.01 1.54-1.01 2.87 0 2.33 1.49 3.03 2.41 3.03 1.47 0 2.33-1.12 3.09-2.96 1.21-2.96 2.33-4.87 4.87-4.87 2.28 0 3.95 2.17 3.95 4.74s-1.51 4.34-1.78 4.63c-.15.18-.33.4-.75.13ZM314.84 153.06c0-2.22.77-3.82 2.04-5.31.17-.18.44-.2.61-.02l.59.59c.22.18.2.35-.02.57-.99 1.14-1.65 2.7-1.65 4.19 0 3.47 2.92 6.12 6.32 6.12s6.3-2.65 6.3-6.12c0-1.91-.77-3.03-1.65-4.19-.18-.22-.15-.4-.07-.53l.59-.66c.13-.18.44-.13.59.02 1.45 1.49 2.13 3.38 2.13 5.33 0 4.39-3.49 7.92-7.88 7.92s-7.92-3.53-7.92-7.92ZM315.48 140.75c-.22 0-.42-.2-.42-.42v-.88c0-.22.2-.42.42-.42h14.53c.22 0 .42.2.42.42v.88c0 .22-.2.42-.42.42h-14.53ZM315.48 130.97c-.22 0-.42-.18-.42-.42v-8.65c0-.24.2-.42.42-.42h.64c.22 0 .42.18.42.42v7.37h5.35v-6.3c0-.22.2-.42.42-.42h.64c.24 0 .42.2.42.42v6.3h5.59v-7.37c0-.24.2-.42.42-.42h.64c.22 0 .42.18.42.42v8.65c0 .24-.2.42-.42.42h-14.53ZM315.24 114.38c-.22 0-.39-.2-.39-.42v-.55l12.33-9.9v-.04h-11.69c-.22 0-.42-.18-.42-.42v-.77c0-.22.2-.42.42-.42h14.77c.22 0 .39.2.39.42v.4l-12.57 10.07v.02h11.94c.22 0 .42.18.42.42v.77c0 .22-.2.42-.42.42h-14.77ZM314.84 87c0-2.22.77-3.82 2.04-5.31.17-.18.44-.2.61-.02l.59.59c.22.18.2.35-.02.57-.99 1.14-1.65 2.7-1.65 4.19 0 3.47 2.92 6.12 6.32 6.12s6.3-2.65 6.3-6.12c0-1.91-.77-3.03-1.65-4.19-.18-.22-.15-.4-.07-.53l.59-.66c.13-.18.44-.13.59.02 1.45 1.49 2.13 3.38 2.13 5.33 0 4.39-3.49 7.92-7.88 7.92s-7.92-3.53-7.92-7.92ZM315.48 74.69c-.22 0-.42-.18-.42-.42v-8.65c0-.24.2-.42.42-.42h.64c.22 0 .42.18.42.42v7.37h5.35v-6.3c0-.22.2-.42.42-.42h.64c.24 0 .42.2.42.42v6.3h5.59v-7.37c0-.24.2-.42.42-.42h.64c.22 0 .42.18.42.42v8.65c0 .24-.2.42-.42.42h-14.53Z"/></svg>
