<svg xmlns="http://www.w3.org/2000/svg" width="1661.97" height="1647.95"><path fill="#fff" d="M1473.14 220.75V0H0v1473.14h234.77v174.81h1427.2V220.75h-188.83z"/><path d="M45.94 45.94H1427.2V1427.2H45.94z"/><path fill="#fff" d="M176.03 493.29c-14.07-15.69-21.11-40.99-21.11-75.9V383.3h68.59v43.43c0 17.32 5.54 25.98 16.64 25.98 6.22 0 10.55-1.83 12.99-5.48s3.65-9.8 3.65-18.47c0-11.36-1.36-20.76-4.06-28.21-2.71-7.44-6.16-13.66-10.35-18.67-4.2-5-11.71-12.78-22.53-23.34l-30.04-30.03c-23.28-22.73-34.91-47.89-34.91-75.49 0-29.76 6.83-52.42 20.5-67.98 13.66-15.56 33.62-23.34 59.87-23.34 31.39 0 53.98 8.32 67.78 24.96 13.8 16.64 20.7 42.69 20.7 78.13h-71.03l-.41-23.95c0-4.6-1.29-8.25-3.85-10.96-2.58-2.7-6.16-4.06-10.76-4.06-5.41 0-9.47 1.49-12.17 4.46-2.71 2.98-4.06 7.04-4.06 12.18 0 11.36 6.49 23.13 19.48 35.31l40.59 38.96c9.47 9.2 17.31 17.93 23.54 26.18 6.22 8.26 11.23 18 15.02 29.22 3.79 11.23 5.68 24.55 5.68 39.98 0 34.37-6.29 60.41-18.87 78.13-12.58 17.72-33.35 26.59-62.3 26.59-31.66 0-54.53-7.84-68.59-23.54ZM339.6 513.58l33.69-348.65H491.4l33.28 348.65h-66.16l-4.87-56.42h-42.21l-4.06 56.42H339.6Zm77.12-112.02h31.66l-15.42-177.37h-3.25l-12.99 177.37ZM545.78 513.58V164.94h69.81v289.39h71.84v59.26H545.78ZM706.9 513.58V164.94h139.62v67.38h-68.59v67.78h65.75v65.75h-65.75v79.96h73.06v67.78H706.9ZM888.33 493.29c-14.07-15.69-21.11-40.99-21.11-75.9V383.3h68.59v43.43c0 17.32 5.54 25.98 16.64 25.98 6.22 0 10.55-1.83 12.99-5.48 2.43-3.65 3.65-9.8 3.65-18.47 0-11.36-1.36-20.76-4.06-28.21-2.71-7.44-6.16-13.66-10.35-18.67-4.2-5-11.71-12.78-22.53-23.34l-30.04-30.03c-23.27-22.73-34.91-47.89-34.91-75.49 0-29.76 6.83-52.42 20.5-67.98 13.66-15.56 33.62-23.34 59.87-23.34 31.39 0 53.98 8.32 67.78 24.96 13.8 16.64 20.7 42.69 20.7 78.13h-71.03l-.41-23.95c0-4.6-1.29-8.25-3.86-10.96-2.57-2.7-6.16-4.06-10.75-4.06-5.42 0-9.47 1.49-12.18 4.46-2.71 2.98-4.06 7.04-4.06 12.18 0 11.36 6.49 23.13 19.48 35.31l40.59 38.96c9.47 9.2 17.31 17.93 23.54 26.18 6.22 8.26 11.22 18 15.02 29.22 3.78 11.23 5.68 24.55 5.68 39.98 0 34.37-6.29 60.41-18.87 78.13-12.58 17.72-33.35 26.59-62.3 26.59-31.66 0-54.53-7.84-68.59-23.54ZM163.54 537.51h96.19c24.89 0 43.56 6.9 56.01 20.7 12.44 13.8 18.81 34.23 19.08 61.29l.81 163.16c.27 34.37-5.68 60.21-17.86 77.52-12.18 17.32-32.33 25.98-60.47 25.98h-93.76V537.51Zm82.39 286.95c12.72 0 19.08-6.22 19.08-18.67v-179.8c0-7.85-.61-13.73-1.83-17.66-1.22-3.92-3.45-6.56-6.7-7.92-3.25-1.35-8.26-2.03-15.02-2.03h-7.71v226.07h12.17ZM363.64 886.16V537.51h139.62v67.38h-68.59v67.78h65.75v65.75h-65.75v79.96h73.06v67.78H363.65ZM545.06 865.86c-14.07-15.69-21.11-40.99-21.11-75.9v-34.09h68.59v43.43c0 17.32 5.54 25.98 16.64 25.98 6.22 0 10.55-1.83 12.99-5.48 2.44-3.65 3.65-9.8 3.65-18.47 0-11.36-1.36-20.76-4.06-28.21-2.71-7.44-6.16-13.66-10.35-18.67-4.2-5-11.71-12.78-22.53-23.34l-30.04-30.03c-23.27-22.73-34.91-47.89-34.91-75.49 0-29.76 6.83-52.42 20.5-67.98 13.66-15.56 33.62-23.34 59.87-23.34 31.39 0 53.98 8.32 67.78 24.96 13.8 16.64 20.7 42.69 20.7 78.13h-71.03l-.41-23.95c0-4.6-1.29-8.25-3.86-10.96-2.58-2.7-6.16-4.06-10.75-4.06-5.42 0-9.48 1.49-12.18 4.46-2.71 2.98-4.06 7.04-4.06 12.18 0 11.36 6.49 23.13 19.48 35.31l40.59 38.96c9.47 9.2 17.31 17.93 23.54 26.18 6.22 8.26 11.22 18 15.02 29.22 3.79 11.23 5.68 24.55 5.68 39.98 0 34.37-6.29 60.41-18.87 78.13-12.58 17.72-33.35 26.59-62.3 26.59-31.66 0-54.53-7.84-68.59-23.54ZM714.71 886.16V537.51h67.38v348.65h-67.38ZM825.71 862.82c-12.32-17.72-18.47-44.58-18.47-80.57V632.07c0-32.2 7.17-56.55 21.51-73.06 14.34-16.5 35.72-24.76 64.13-24.76 23 0 40.85 4.6 53.58 13.8 12.71 9.2 21.51 22.6 26.38 40.18 4.87 17.59 7.3 40.18 7.3 67.78h-68.19v-31.25c0-8.38-1.15-14.88-3.45-19.48-2.3-4.6-6.43-6.9-12.38-6.9-13.26 0-19.89 8.66-19.89 25.98V793.2c0 10.55 1.35 18.54 4.06 23.95 2.7 5.42 7.44 8.12 14.21 8.12s11.5-2.7 14.21-8.12c2.7-5.41 4.06-13.39 4.06-23.95v-49.92H894.1v-60.07h85.23v202.94h-28.01l-11.77-29.22c-12.45 21.65-31.66 32.47-57.63 32.47s-43.9-8.86-56.21-26.59ZM1006.93 886.16V537.51h71.84l32.06 166.82V537.51h67.38v348.65h-68.19l-34.91-174.53v174.53h-68.19ZM168.07 1250.91V902.26h69.81v289.39h71.84v59.26H168.07ZM319.86 1250.91l33.69-348.65h118.11l33.28 348.65h-66.16l-4.87-56.42H391.7l-4.06 56.42h-67.78Zm77.11-112.02h31.66l-15.42-177.37h-3.25l-12.99 177.37ZM526.04 902.27h94.57c25.43 0 43.9 6.23 55.4 18.67 11.5 12.45 17.25 32.74 17.25 60.88v15.42c0 33.28-11.91 53.17-35.72 59.66 14.61 3.79 24.89 12.58 30.85 26.38 5.95 13.8 8.93 32.06 8.93 54.79 0 37.07-5.55 65.14-16.64 84.22-11.1 19.08-31.12 28.61-60.07 28.61h-94.57V902.25Zm82.39 131.1c5.95 0 10.01-2.23 12.18-6.7 2.16-4.46 3.25-10.75 3.25-18.87v-34.91c0-11.36-5.01-17.05-15.02-17.05h-14.61v77.52h14.21Zm19.89 130.29v-43.43c0-10.55-1.56-18.53-4.67-23.95-3.11-5.41-8.59-8.12-16.44-8.12h-12.99v101.06l6.9.41c18.12 0 27.19-8.66 27.19-25.98ZM736.06 1230.73c-14.1-15.72-21.15-41.08-21.15-76.06v-34.17h68.74v43.52c0 17.36 5.55 26.03 16.68 26.03 6.23 0 10.58-1.83 13.02-5.49s3.66-9.82 3.66-18.5c0-11.39-1.36-20.81-4.07-28.27-2.71-7.45-6.17-13.69-10.37-18.71-4.21-5.01-11.73-12.81-22.57-23.39l-30.1-30.1c-23.32-22.78-34.98-47.99-34.98-75.65 0-29.82 6.84-52.53 20.54-68.13 13.69-15.59 33.69-23.39 59.99-23.39 31.45 0 54.1 8.34 67.92 25.01 13.83 16.68 20.74 42.78 20.74 78.3h-71.18l-.41-24c0-4.61-1.29-8.27-3.86-10.98-2.58-2.71-6.17-4.07-10.78-4.07-5.43 0-9.5 1.49-12.2 4.47-2.71 2.99-4.07 7.06-4.07 12.2 0 11.39 6.51 23.18 19.52 35.39l40.67 39.05c9.49 9.22 17.35 17.97 23.59 26.24 6.24 8.27 11.25 18.04 15.05 29.29 3.8 11.25 5.69 24.61 5.69 40.06 0 34.44-6.3 60.54-18.91 78.3-12.61 17.77-33.42 26.64-62.43 26.64-31.73 0-54.64-7.86-68.74-23.59Z"/><path d="M1583.07 1565.42c-.64-.53-1.38-1.06-2.01-1.59-1.38-1.06-2.22-2.22-.95-3.71.64-.74 8.05-8.47 8.05-17.89 0-8.58-5.4-14.19-11.65-14.19-7.3 0-11.65 6.35-16.73 18.53-5.08 11.65-9.85 18.63-21.91 18.63-7.2 0-18.84-5.72-18.84-22.55 0-10.38 5.4-18.1 5.4-18.1.32-.64 1.59-1.91 3.6-.64.64.42 1.38.85 2.01 1.27 1.48.95 1.91 2.01.95 3.71-.42.74-4.87 7.41-4.87 13.87 0 11.22 7.2 14.61 11.65 14.61 7.09 0 11.22-5.4 14.93-14.29 5.82-14.29 11.22-23.5 23.5-23.5 11.01 0 19.06 10.48 19.06 22.87s-7.3 20.96-8.58 22.34c-.74.85-1.59 1.91-3.6.64ZM1591.44 1497.03l-71.25-32.18c-.64-.32-1.16-.85-1.16-1.8v-1.06c0-.95.53-1.48 1.16-1.8l71.25-31.97c1.38-.64 2.75.21 2.75 1.8v4.23c0 .95-.64 1.59-1.16 1.8l-17.47 7.83v37.58l17.47 7.73c.53.21 1.16.85 1.16 1.8v4.23c0 1.59-1.38 2.44-2.75 1.8Zm-22.44-50.29c-11.54 5.19-23.18 10.27-34.72 15.46v.85l34.72 15.46v-31.76ZM1522.09 1399.33a2.01 2.01 0 0 1-2.01-2.01v-4.13c0-1.06.95-2.01 2.01-2.01h65v-30.49c0-1.16.95-2.01 2.01-2.01h3.07c1.06 0 2.01.85 2.01 2.01v36.63c0 1.16-.95 2.01-2.01 2.01h-70.08ZM1522.09 1329.99a2.01 2.01 0 0 1-2.01-2.01v-41.71c0-1.16.95-2.01 2.01-2.01h3.07c1.06 0 2.01.85 2.01 2.01v35.57H1553v-30.38c0-1.06.95-2.01 2.01-2.01h3.07c1.16 0 2.01.95 2.01 2.01v30.38h27v-35.57c0-1.16.95-2.01 2.01-2.01h3.07c1.06 0 2.01.85 2.01 2.01v41.71c0 1.16-.95 2.01-2.01 2.01h-70.08ZM1583.07 1254.72c-.64-.53-1.38-1.06-2.01-1.59-1.38-1.06-2.22-2.22-.95-3.71.64-.74 8.05-8.47 8.05-17.89 0-8.58-5.4-14.19-11.65-14.19-7.3 0-11.65 6.35-16.73 18.53-5.08 11.65-9.85 18.63-21.91 18.63-7.2 0-18.84-5.72-18.84-22.55 0-10.38 5.4-18.1 5.4-18.1.32-.64 1.59-1.91 3.6-.64.64.42 1.38.85 2.01 1.27 1.48.95 1.91 2.01.95 3.71-.42.74-4.87 7.41-4.87 13.87 0 11.22 7.2 14.61 11.65 14.61 7.09 0 11.22-5.4 14.93-14.29 5.82-14.29 11.22-23.5 23.5-23.5 11.01 0 19.06 10.48 19.06 22.87s-7.3 20.96-8.58 22.34c-.74.85-1.59 1.91-3.6.64ZM1522.09 1135.32c-1.06 0-2.01-.95-2.01-2.01v-4.23c0-1.06.95-2.01 2.01-2.01h70.08c1.06 0 2.01.95 2.01 2.01v4.23c0 1.06-.95 2.01-2.01 2.01h-70.08ZM1583.07 1092.87c-.64-.53-1.38-1.06-2.01-1.59-1.38-1.06-2.22-2.22-.95-3.71.64-.74 8.05-8.47 8.05-17.89 0-8.58-5.4-14.19-11.65-14.19-7.3 0-11.65 6.35-16.73 18.53-5.08 11.65-9.85 18.63-21.91 18.63-7.2 0-18.84-5.72-18.84-22.55 0-10.38 5.4-18.1 5.4-18.1.32-.64 1.59-1.91 3.6-.64.64.42 1.38.85 2.01 1.27 1.48.95 1.91 2.01.95 3.71-.42.74-4.87 7.41-4.87 13.87 0 11.22 7.2 14.61 11.65 14.61 7.09 0 11.22-5.4 14.93-14.29 5.82-14.29 11.22-23.5 23.5-23.5 11.01 0 19.06 10.48 19.06 22.87s-7.3 20.96-8.58 22.34c-.74.85-1.59 1.91-3.6.64ZM1591.44 983.63l-71.25-32.18c-.64-.32-1.16-.85-1.16-1.8v-1.06c0-.95.53-1.48 1.16-1.8l71.25-31.97c1.38-.64 2.75.21 2.75 1.8v4.23c0 .95-.64 1.59-1.16 1.8l-17.47 7.83v37.58l17.47 7.73c.53.21 1.16.85 1.16 1.8v4.23c0 1.59-1.38 2.44-2.75 1.8ZM1569 933.34c-11.54 5.19-23.18 10.27-34.72 15.46v.85l34.72 15.46v-31.76ZM1583.07 849.83c-.64-.53-1.38-1.06-2.01-1.59-1.38-1.06-2.22-2.22-.95-3.71.64-.74 8.05-8.47 8.05-17.89 0-8.58-5.4-14.19-11.65-14.19-7.3 0-11.65 6.35-16.73 18.53-5.08 11.65-9.85 18.63-21.91 18.63-7.2 0-18.84-5.72-18.84-22.55 0-10.37 5.4-18.1 5.4-18.1.32-.64 1.59-1.91 3.6-.64.64.42 1.38.85 2.01 1.27 1.48.95 1.91 2.01.95 3.71-.42.74-4.87 7.41-4.87 13.87 0 11.22 7.2 14.61 11.65 14.61 7.09 0 11.22-5.4 14.93-14.29 5.82-14.29 11.22-23.5 23.5-23.5 11.01 0 19.06 10.48 19.06 22.87s-7.3 20.96-8.58 22.34c-.74.85-1.59 1.91-3.6.64ZM1519.02 738.46c0-10.69 3.71-18.42 9.85-25.62.85-.85 2.12-.95 2.96-.11l2.86 2.86c1.06.85.95 1.69-.11 2.75-4.76 5.5-7.94 13.02-7.94 20.22 0 16.73 14.08 29.54 30.49 29.54s30.38-12.81 30.38-29.54c0-9.21-3.71-14.61-7.94-20.22-.85-1.06-.74-1.91-.32-2.54l2.86-3.18c.64-.85 2.12-.64 2.86.11 6.99 7.2 10.27 16.3 10.27 25.73 0 21.17-16.83 38.22-38.01 38.22s-38.22-17.04-38.22-38.22ZM1522.09 679.08c-1.06 0-2.01-.95-2.01-2.01v-4.23c0-1.06.95-2.01 2.01-2.01h70.08c1.06 0 2.01.95 2.01 2.01v4.23c0 1.06-.95 2.01-2.01 2.01h-70.08ZM1522.09 631.87a2.01 2.01 0 0 1-2.01-2.01v-41.71c0-1.16.95-2.01 2.01-2.01h3.07c1.06 0 2.01.85 2.01 2.01v35.57H1553v-30.38c0-1.06.95-2.01 2.01-2.01h3.07c1.16 0 2.01.95 2.01 2.01v30.38h27v-35.57c0-1.16.95-2.01 2.01-2.01h3.07c1.06 0 2.01.85 2.01 2.01v41.71c0 1.16-.95 2.01-2.01 2.01h-70.08ZM1520.93 551.84c-1.06 0-1.91-.95-1.91-2.01v-2.65l59.5-47.75v-.21h-56.43a2.01 2.01 0 0 1-2.01-2.01v-3.71c0-1.06.95-2.01 2.01-2.01h71.25c1.06 0 1.91.95 1.91 2.01v1.91L1534.59 544v.11h57.59c1.06 0 2.01.85 2.01 2.01v3.71c0 1.06-.95 2.01-2.01 2.01h-71.25ZM1519.02 419.73c0-10.69 3.71-18.42 9.85-25.62.85-.85 2.12-.95 2.96-.11l2.86 2.86c1.06.85.95 1.69-.11 2.75-4.76 5.5-7.94 13.02-7.94 20.22 0 16.73 14.08 29.54 30.49 29.54s30.38-12.81 30.38-29.54c0-9.21-3.71-14.61-7.94-20.22-.85-1.06-.74-1.91-.32-2.54l2.86-3.18c.64-.85 2.12-.64 2.86.11 6.99 7.2 10.27 16.3 10.27 25.73 0 21.17-16.83 38.22-38.01 38.22s-38.22-17.04-38.22-38.22ZM1522.09 360.34a2.01 2.01 0 0 1-2.01-2.01v-41.71c0-1.16.95-2.01 2.01-2.01h3.07c1.06 0 2.01.85 2.01 2.01v35.57H1553v-30.38c0-1.06.95-2.01 2.01-2.01h3.07c1.16 0 2.01.95 2.01 2.01v30.38h27v-35.57c0-1.16.95-2.01 2.01-2.01h3.07c1.06 0 2.01.85 2.01 2.01v41.71c0 1.16-.95 2.01-2.01 2.01h-70.08Z"/></svg>
